<?xml version="1.0" encoding="UTF-8" standalone="no"?>
<!-- Created with Inkscape (http://www.inkscape.org/) -->

<svg
   width="150"
   height="150"
   viewBox="0 0 39.687499 39.6875"
   version="1.1"
   id="svg185"
   inkscape:version="1.2.2 (1:1.2.2+202305151914+b0a8486541)"
   sodipodi:docname="o.svg"
   xmlns:inkscape="http://www.inkscape.org/namespaces/inkscape"
   xmlns:sodipodi="http://sodipodi.sourceforge.net/DTD/sodipodi-0.dtd"
   xmlns="http://www.w3.org/2000/svg"
   xmlns:svg="http://www.w3.org/2000/svg">
  <sodipodi:namedview
     id="namedview187"
     pagecolor="#ffffff"
     bordercolor="#000000"
     borderopacity="0.25"
     inkscape:showpageshadow="2"
     inkscape:pageopacity="0.0"
     inkscape:pagecheckerboard="0"
     inkscape:deskcolor="#d1d1d1"
     inkscape:document-units="mm"
     showgrid="false"
     inkscape:zoom="2.4844367"
     inkscape:cx="112.2991"
     inkscape:cy="71.04226"
     inkscape:window-width="1366"
     inkscape:window-height="673"
     inkscape:window-x="0"
     inkscape:window-y="0"
     inkscape:window-maximized="1"
     inkscape:current-layer="layer1" />
  <defs
     id="defs182" />
  <g
     inkscape:label="Layer 1"
     inkscape:groupmode="layer"
     id="layer1">
    <path
       id="path1406"
       d="M 19.815469,4.035499 A 15.856073,15.831804 0 0 0 3.959396,19.867303 15.856073,15.831804 0 0 0 19.815469,35.699107 15.856073,15.831804 0 0 0 35.671541,19.867303 15.856073,15.831804 0 0 0 19.815469,4.035499 Z m 0,4.221821 A 11.627787,11.609989 0 0 1 31.443257,19.867303 11.627787,11.609989 0 0 1 19.815469,31.477286 11.627787,11.609989 0 0 1 8.1876827,19.867303 11.627787,11.609989 0 0 1 19.815469,8.25732 Z"
       style="fill:#000000;fill-opacity:1;stroke:none;stroke-width:10.0643;stroke-linecap:square;stroke-linejoin:miter;stroke-miterlimit:2.5;stroke-dasharray:none;stroke-opacity:0.950673;paint-order:stroke fill markers"
       inkscape:connector-curvature="0" />
  </g>
</svg>
